PathFileType	4	(X/Y/Z)	/Users/itak/Documents/Research/Walk-IL/dataset/trc/00472_00167.trc
DataRate	CameraRate	NumFrames	NumMarkers	Units	OrigDataRate	OrigDataStartFrame	OrigNumFrames
100.000000	100.000000	4	53	mm	100.000000	74	598
Frame#	Time	RPSI			LPSI			L3			STRN			T10			C7			CLAV			RBAK			LBAK			LSHO			LUPA			LAEL			LAOL			LWTS			LWPS			LFRA			LIFD			LHPS			LHTS			RSHO			RUPA			RAEL			RAOL			RWTS			RWPS			RFRA			RIFD			RHTS			RHPS			RBHD			LFHD			RFHD			LBHD			LHIP			RHIP			RASI			LASI			LKNE			LTHI			LANK			LTIP			LTOE			LMT1			LMT5			LHEE			RKNE			RTHI			RANK			RTIP			RTOE			RMT1			RMT5			RHEE			
		X1	Y1	Z1	X2	Y2	Z2	X3	Y3	Z3	X4	Y4	Z4	X5	Y5	Z5	X6	Y6	Z6	X7	Y7	Z7	X8	Y8	Z8	X9	Y9	Z9	X10	Y10	Z10	X11	Y11	Z11	X12	Y12	Z12	X13	Y13	Z13	X14	Y14	Z14	X15	Y15	Z15	X16	Y16	Z16	X17	Y17	Z17	X18	Y18	Z18	X19	Y19	Z19	X20	Y20	Z20	X21	Y21	Z21	X22	Y22	Z22	X23	Y23	Z23	X24	Y24	Z24	X25	Y25	Z25	X26	Y26	Z26	X27	Y27	Z27	X28	Y28	Z28	X29	Y29	Z29	X30	Y30	Z30	X31	Y31	Z31	X32	Y32	Z32	X33	Y33	Z33	X34	Y34	Z34	X35	Y35	Z35	X36	Y36	Z36	X37	Y37	Z37	X38	Y38	Z38	X39	Y39	Z39	X40	Y40	Z40	X41	Y41	Z41	X42	Y42	Z42	X43	Y43	Z43	X44	Y44	Z44	X45	Y45	Z45	X46	Y46	Z46	X47	Y47	Z47	X48	Y48	Z48	X49	Y49	Z49	X50	Y50	Z50	X51	Y51	Z51	X52	Y52	Z52	X53	Y53	Z53	

75	0.74	-1326.857421875	970.1370849609375	-413.336181640625	-1308.441772460938	964.9849243164062	-553.423095703125	-1304.191284179688	1056.27099609375	-467.7445373535156	-1033.886840820312	1251.500610351562	-453.0322265625	-1322.869262695312	1180.735717773438	-471.2683410644531	-1255.956787109375	1448.511840820312	-454.7708129882812	-1072.323974609375	1362.989868164062	-459.2507629394531	-1325.06982421875	1329.306518554688	-363.5980834960938	-1285.2080078125	1400.706909179688	-555.7715454101562	-1179.097290039062	1421.695434570312	-629.6881103515625	-1183.540405273438	1303.789306640625	-729.0319213867188	-1156.477783203125	1087.16748046875	-759.1524658203125	-1239.539916992188	1074.915771484375	-699.7367553710938	-1076.858520507812	888.2915649414062	-711.93505859375	-1122.053466796875	870.7802734375	-769.7348022460938	-1134.340576171875	999.582275390625	-767.2735595703125	-1058.512939453125	732.304443359375	-730.7571411132812	-1108.9931640625	797.0846557617188	-773.5423583984375	-1054.570434570312	806.8233032226562	-725.9517211914062	-1195.209716796875	1416.644287109375	-291.0790710449219	-1217.112182617188	1357.438110351562	-215.4011688232422	-1215.019775390625	1070.5771484375	-155.7427368164062	-1265.737182617188	1053.673706054688	-197.1958160400391	-1111.9423828125	865.176025390625	-200.3085021972656	-1178.394165039062	850.8475952148438	-142.2637023925781	-1211.29052734375	1011.836608886719	-145.9392395019531	-1107.670776367188	709.5242309570312	-184.9122009277344	-1095.092895507812	768.5975341796875	-186.5198211669922	-1160.983764648438	765.0392456054688	-143.4960632324219	-1145.881591796875	1646.443603515625	-361.189697265625	-1011.742553710938	1642.238159179688	-518.8364868164062	-1010.104064941406	1640.539184570312	-388.5130310058594	-1163.15185546875	1655.871337890625	-537.5798950195312	-1165.624145507812	862.2093505859375	-658.0270385742188	-1234.341064453125	861.9940795898438	-266.2326354980469	-1116.50341796875	898.5926513671875	-310.4320068359375	-1074.248168945312	893.4677124023438	-566.8302001953125	-1200.877807617188	446.0314636230469	-633.757080078125	-1159.88623046875	595.1107177734375	-648.448486328125	-1292.2998046875	43.99853134155273	-646.4224853515625	-1216.7255859375	301.2841491699219	-652.6732177734375	-1068.207763671875	41.69100952148438	-555.433837890625	-1145.99560546875	50.44447326660156	-534.7672729492188	-1139.340698242188	44.43701553344727	-649.191162109375	-1343.450439453125	48.58837890625	-587.3799438476562	-1232.9423828125	470.2807312011719	-290.5931701660156	-1200.226684570312	727.9573974609375	-248.3268127441406	-1309.522705078125	45.08028411865234	-293.8588256835938	-1241.579711914062	326.0378112792969	-280.8533325195312	-1090.273559570312	46.46664047241211	-323.6140747070312	-1151.195434570312	52.27981948852539	-364.2573852539062	-1178.116333007812	48.19411087036133	-258.4913024902344	-1370.657836914062	39.52290725708008	-345.1508178710938	
76	0.75	-1326.611083984375	970.2199096679688	-412.9063720703125	-1308.265380859375	965.0503540039062	-552.9157104492188	-1303.902465820312	1056.331909179688	-467.3689270019531	-1033.297729492188	1251.469360351562	-452.7329406738281	-1322.527465820312	1180.828491210938	-470.8284301757812	-1255.39697265625	1448.567993164062	-454.4344482421875	-1071.777465820312	1362.9423828125	-458.9757080078125	-1324.558349609375	1329.396606445312	-363.1907348632812	-1284.722045898438	1400.77392578125	-555.3621826171875	-1178.690063476562	1421.709838867188	-629.3496704101562	-1183.132568359375	1303.822631835938	-728.6954345703125	-1156.19287109375	1087.185180664062	-758.77294921875	-1239.290649414062	1074.979370117188	-699.3146362304688	-1076.7021484375	888.3447265625	-711.44873046875	-1121.9248046875	870.7514038085938	-769.1840209960938	-1134.115966796875	999.5375366210938	-766.8142700195312	-1058.505859375	732.2411499023438	-730.1138305664062	-1108.806640625	797.0421142578125	-772.9411010742188	-1054.414428710938	806.83935546875	-725.3822631835938	-1194.596435546875	1416.66845703125	-290.7607421875	-1216.496948242188	1357.51806640625	-215.0266723632812	-1214.568359375	1070.660400390625	-155.3162841796875	-1265.289916992188	1053.774291992188	-196.7820587158203	-1111.578857421875	865.18701171875	-199.8992462158203	-1178.10693359375	850.8958740234375	-141.7984619140625	-1210.912353515625	1011.915344238281	-145.4559478759766	-1107.530517578125	709.5230102539062	-184.4320373535156	-1094.883911132812	768.5767822265625	-186.0788421630859	-1160.760864257812	765.0782470703125	-143.0057678222656	-1145.187744140625	1646.3671875	-360.8286743164062	-1011.052429199219	1642.116455078125	-518.456298828125	-1009.432434082031	1640.374267578125	-388.1282653808594	-1162.427734375	1655.892822265625	-537.2240600585938	-1165.490234375	862.1689453125	-657.57861328125	-1234.128051757812	861.9845581054688	-265.8510437011719	-1116.218994140625	898.5503540039062	-309.992431640625	-1073.9443359375	893.4034423828125	-566.4876708984375	-1200.804321289062	446.0139770507812	-633.4766235351562	-1159.811279296875	595.0857543945312	-648.08154296875	-1292.284790039062	44.03383255004883	-646.376953125	-1216.676025390625	301.3758239746094	-652.5272216796875	-1068.183349609375	41.66550064086914	-555.4141845703125	-1145.982788085938	50.42591857910156	-534.76171875	-1139.350463867188	44.44325637817383	-649.1744995117188	-1343.46533203125	48.60701370239258	-587.2554931640625	-1233.042358398438	470.2785949707031	-290.3407897949219	-1200.128540039062	727.9191284179688	-247.9924774169922	-1309.523803710938	45.06010055541992	-293.8432312011719	-1241.610229492188	325.9986267089844	-280.72509765625	-1090.263549804688	46.44505310058594	-323.6549682617188	-1151.2099609375	52.29290771484375	-364.2362060546875	-1178.131225585938	48.1943244934082	-258.4564514160156	-1370.677612304688	39.52217864990234	-345.119873046875	
77	0.76	-1326.369384765625	970.2811889648438	-412.5095825195312	-1308.081298828125	965.0967407226562	-552.422607421875	-1303.607421875	1056.378173828125	-467.0069580078125	-1032.718994140625	1251.42529296875	-452.439208984375	-1322.170043945312	1180.910034179688	-470.407958984375	-1254.853637695312	1448.612182617188	-454.1087036132812	-1071.284057617188	1362.884155273438	-458.7382507324219	-1324.060668945312	1329.470092773438	-362.7872314453125	-1284.255126953125	1400.830322265625	-554.95654296875	-1178.274169921875	1421.712524414062	-629.0089721679688	-1182.73681640625	1303.840942382812	-728.3629760742188	-1155.954345703125	1087.172973632812	-758.4198608398438	-1239.06494140625	1075.011108398438	-698.8803100585938	-1076.559326171875	888.3848876953125	-710.9656982421875	-1121.804321289062	870.711181640625	-768.6361694335938	-1133.956665039062	999.4740600585938	-766.3779907226562	-1058.342407226562	732.2205200195312	-729.4807739257812	-1108.599365234375	796.9515991210938	-772.3388671875	-1054.288330078125	806.859375	-724.8226318359375	-1194.0009765625	1416.678588867188	-290.4453430175781	-1215.887084960938	1357.581298828125	-214.6632232666016	-1214.119750976562	1070.733520507812	-154.8920745849609	-1264.835815429688	1053.848266601562	-196.4092712402344	-1111.238647460938	865.1708374023438	-199.4604339599609	-1177.831665039062	850.9370727539062	-141.3351287841797	-1210.535400390625	1011.98291015625	-144.9761505126953	-1107.405029296875	709.5096435546875	-183.9286651611328	-1094.687866210938	768.5442504882812	-185.6253356933594	-1160.554077148438	765.110107421875	-142.5039978027344	-1144.492309570312	1646.2978515625	-360.4705200195312	-1010.392700195312	1641.982177734375	-518.0866088867188	-1008.79150390625	1640.198120117188	-387.7431945800781	-1161.712768554688	1655.897216796875	-536.8703002929688	-1165.346801757812	862.1221313476562	-657.1419067382812	-1233.934326171875	861.9674072265625	-265.4622192382812	-1115.95166015625	898.5076293945312	-309.5459594726562	-1073.629638671875	893.3334350585938	-566.13232421875	-1200.735473632812	445.9988098144531	-633.2041625976562	-1159.763061523438	595.0532836914062	-647.7139892578125	-1292.271606445312	44.06475448608398	-646.3392944335938	-1216.633422851562	301.4658203125	-652.3772583007812	-1068.160522460938	41.6440315246582	-555.3966674804688	-1145.970703125	50.41116714477539	-534.75634765625	-1139.361572265625	44.44977951049805	-649.1599731445312	-1343.476806640625	48.61929702758789	-587.14892578125	-1233.128051757812	470.2712707519531	-290.0723876953125	-1200.027099609375	727.873779296875	-247.6787567138672	-1309.526000976562	45.03934478759766	-293.8314208984375	-1241.636596679688	325.9586486816406	-280.5856628417969	-1090.256713867188	46.43335342407227	-323.6886596679688	-1151.223999023438	52.30276489257812	-364.2185668945312	-1178.146484375	48.19763946533203	-258.4263000488281	-1370.697998046875	39.51685333251953	-345.0928649902344	
78	0.77	-1326.1328125	970.3233032226562	-412.140869140625	-1307.88623046875	965.1285400390625	-551.95263671875	-1303.306884765625	1056.418090820312	-466.6452941894531	-1032.144409179688	1251.373413085938	-452.1442565917969	-1321.801025390625	1180.9794921875	-470.0072326660156	-1254.326782226562	1448.644287109375	-453.7900390625	-1070.832885742188	1362.816162109375	-458.5263977050781	-1323.576171875	1329.53125	-362.3863220214844	-1283.806396484375	1400.873413085938	-554.56005859375	-1177.841430664062	1421.708251953125	-628.6636352539062	-1182.360961914062	1303.843505859375	-728.0349731445312	-1155.75634765625	1087.131469726562	-758.0859985351562	-1238.856323242188	1075.014404296875	-698.439208984375	-1076.39404296875	888.414794921875	-710.470947265625	-1121.680297851562	870.6580200195312	-768.0928344726562	-1133.856689453125	999.399169921875	-765.9623413085938	-1058.09619140625	732.2195434570312	-728.8643798828125	-1108.376098632812	796.8203735351562	-771.7396240234375	-1054.184204101562	806.880126953125	-724.2764282226562	-1193.423950195312	1416.678344726562	-290.1244201660156	-1215.287963867188	1357.630981445312	-214.3116149902344	-1213.676513671875	1070.7978515625	-154.4712219238281	-1264.386474609375	1053.901000976562	-196.0633087158203	-1110.92919921875	865.1310424804688	-198.9968566894531	-1177.571044921875	850.9752197265625	-140.8694152832031	-1210.1611328125	1012.04248046875	-144.5052032470703	-1107.2880859375	709.485595703125	-183.4122314453125	-1094.502563476562	768.5015258789062	-185.1604614257812	-1160.36181640625	765.1370239257812	-141.9964294433594	-1143.809204101562	1646.241088867188	-360.1207580566406	-1009.761779785156	1641.83740234375	-517.7283935546875	-1008.178649902344	1640.01708984375	-387.3591003417969	-1161.008911132812	1655.880859375	-536.5233154296875	-1165.19140625	862.0711669921875	-656.7210693359375	-1233.755493164062	861.9468994140625	-265.0719604492188	-1115.730712890625	898.45751953125	-309.1037292480469	-1073.334594726562	893.2559204101562	-565.7527465820312	-1200.676391601562	445.986328125	-632.9502563476562	-1159.73095703125	595.0165405273438	-647.3545532226562	-1292.259887695312	44.09075164794922	-646.309326171875	-1216.599975585938	301.5519409179688	-652.2256469726562	-1068.13916015625	41.62551879882812	-555.3814697265625	-1145.960571289062	50.399658203125	-534.7518920898438	-1139.37255859375	44.45627975463867	-649.1480102539062	-1343.483154296875	48.62591552734375	-587.0634765625	-1233.193603515625	470.2584533691406	-289.7903442382812	-1199.921630859375	727.8236694335938	-247.3762969970703	-1309.52978515625	45.01929473876953	-293.8221130371094	-1241.655029296875	325.9181823730469	-280.4355163574219	-1090.252563476562	46.43082427978516	-323.7132873535156	-1151.23681640625	52.30990600585938	-364.2036437988281	-1178.16162109375	48.20241928100586	-258.4004821777344	-1370.718994140625	39.50894546508789	-345.06689453125	
